<mxfile host="app.diagrams.net" agent="Mozilla/5.0 (Windows NT 10.0; Win64; x64) AppleWebKit/537.36 (KHTML, like Gecko) Chrome/139.0.0.0 Safari/537.36" version="28.2.0">
  <diagram name="Page-1" id="HjDgYiX6InYMAq1w0t4M">
    <mxGraphModel dx="786" dy="417" grid="1" gridSize="10" guides="1" tooltips="1" connect="1" arrows="1" fold="1" page="1" pageScale="1" pageWidth="850" pageHeight="1100" math="0" shadow="0">
      <root>
        <mxCell id="0" />
        <mxCell id="1" parent="0" />
        <mxCell id="UewWww2CIT4pgZngoiiL-1" value="&lt;b&gt;&lt;font style=&quot;font-size: 20px;&quot;&gt;CCTV&lt;/font&gt;&lt;/b&gt;" style="rounded=1;whiteSpace=wrap;html=1;" parent="1" vertex="1">
          <mxGeometry x="100" y="10" width="70" height="30" as="geometry" />
        </mxCell>
        <mxCell id="UewWww2CIT4pgZngoiiL-2" value="" style="rounded=0;whiteSpace=wrap;html=1;" parent="1" vertex="1">
          <mxGeometry x="10" y="50" width="240" height="80" as="geometry" />
        </mxCell>
        <mxCell id="UewWww2CIT4pgZngoiiL-3" value="&lt;b&gt;&lt;font style=&quot;font-size: 15px;&quot;&gt;Camera&lt;/font&gt;&lt;/b&gt;" style="ellipse;whiteSpace=wrap;html=1;" parent="1" vertex="1">
          <mxGeometry x="20" y="70" width="80" height="40" as="geometry" />
        </mxCell>
        <mxCell id="UewWww2CIT4pgZngoiiL-7" value="" style="shape=actor;whiteSpace=wrap;html=1;strokeWidth=2;" parent="1" vertex="1">
          <mxGeometry x="210" y="70" width="30" height="40" as="geometry" />
        </mxCell>
        <mxCell id="UewWww2CIT4pgZngoiiL-9" style="edgeStyle=orthogonalEdgeStyle;rounded=0;orthogonalLoop=1;jettySize=auto;html=1;entryX=0.1;entryY=0.5;entryDx=0;entryDy=0;entryPerimeter=0;" parent="1" source="UewWww2CIT4pgZngoiiL-3" target="UewWww2CIT4pgZngoiiL-7" edge="1">
          <mxGeometry relative="1" as="geometry" />
        </mxCell>
        <mxCell id="UewWww2CIT4pgZngoiiL-10" value="&lt;font style=&quot;font-size: 12px;&quot;&gt;&lt;b&gt;Captures&lt;/b&gt;&lt;/font&gt;" style="edgeLabel;html=1;align=center;verticalAlign=middle;resizable=0;points=[];" parent="UewWww2CIT4pgZngoiiL-9" vertex="1" connectable="0">
          <mxGeometry x="-0.0088" relative="1" as="geometry">
            <mxPoint as="offset" />
          </mxGeometry>
        </mxCell>
        <mxCell id="HrrryDI2J3kP2jH0_c2q-1" value="&lt;font style=&quot;font-size: 20px;&quot;&gt;&lt;b style=&quot;&quot;&gt;Pre Processing&lt;/b&gt;&lt;/font&gt;" style="rounded=1;whiteSpace=wrap;html=1;" parent="1" vertex="1">
          <mxGeometry x="580" y="10" width="150" height="30" as="geometry" />
        </mxCell>
        <mxCell id="HrrryDI2J3kP2jH0_c2q-15" value="" style="group" parent="1" vertex="1" connectable="0">
          <mxGeometry x="420" y="50" width="420" height="300" as="geometry" />
        </mxCell>
        <mxCell id="HrrryDI2J3kP2jH0_c2q-2" value="" style="rounded=0;whiteSpace=wrap;html=1;" parent="HrrryDI2J3kP2jH0_c2q-15" vertex="1">
          <mxGeometry width="420" height="300" as="geometry" />
        </mxCell>
        <mxCell id="HrrryDI2J3kP2jH0_c2q-5" value="" style="edgeStyle=orthogonalEdgeStyle;rounded=0;orthogonalLoop=1;jettySize=auto;html=1;" parent="HrrryDI2J3kP2jH0_c2q-15" source="HrrryDI2J3kP2jH0_c2q-3" target="HrrryDI2J3kP2jH0_c2q-4" edge="1">
          <mxGeometry relative="1" as="geometry" />
        </mxCell>
        <mxCell id="HrrryDI2J3kP2jH0_c2q-6" value="&lt;font style=&quot;font-size: 14px;&quot;&gt;No&lt;/font&gt;" style="edgeLabel;html=1;align=center;verticalAlign=middle;resizable=0;points=[];" parent="HrrryDI2J3kP2jH0_c2q-5" vertex="1" connectable="0">
          <mxGeometry x="-0.0667" y="-2" relative="1" as="geometry">
            <mxPoint as="offset" />
          </mxGeometry>
        </mxCell>
        <mxCell id="HrrryDI2J3kP2jH0_c2q-8" value="" style="edgeStyle=orthogonalEdgeStyle;rounded=0;orthogonalLoop=1;jettySize=auto;html=1;" parent="HrrryDI2J3kP2jH0_c2q-15" source="HrrryDI2J3kP2jH0_c2q-3" target="HrrryDI2J3kP2jH0_c2q-7" edge="1">
          <mxGeometry relative="1" as="geometry">
            <Array as="points">
              <mxPoint x="80" y="100" />
              <mxPoint x="80" y="100" />
            </Array>
          </mxGeometry>
        </mxCell>
        <mxCell id="HrrryDI2J3kP2jH0_c2q-9" value="&lt;font style=&quot;font-size: 14px;&quot;&gt;Yes&lt;/font&gt;" style="edgeLabel;html=1;align=center;verticalAlign=middle;resizable=0;points=[];" parent="HrrryDI2J3kP2jH0_c2q-8" vertex="1" connectable="0">
          <mxGeometry x="-0.0568" y="-1" relative="1" as="geometry">
            <mxPoint as="offset" />
          </mxGeometry>
        </mxCell>
        <mxCell id="HrrryDI2J3kP2jH0_c2q-3" value="&lt;font style=&quot;font-size: 15px;&quot;&gt;&lt;b&gt;Frame Capturing&lt;/b&gt;&lt;/font&gt;" style="ellipse;whiteSpace=wrap;html=1;" parent="HrrryDI2J3kP2jH0_c2q-15" vertex="1">
          <mxGeometry x="10" y="5" width="140" height="30" as="geometry" />
        </mxCell>
        <mxCell id="HrrryDI2J3kP2jH0_c2q-4" value="&lt;font style=&quot;font-size: 15px;&quot;&gt;&lt;b&gt;Recapture Frame&lt;/b&gt;&lt;/font&gt;" style="ellipse;whiteSpace=wrap;html=1;" parent="HrrryDI2J3kP2jH0_c2q-15" vertex="1">
          <mxGeometry x="230" y="5" width="180" height="30" as="geometry" />
        </mxCell>
        <mxCell id="HrrryDI2J3kP2jH0_c2q-11" value="" style="edgeStyle=orthogonalEdgeStyle;rounded=0;orthogonalLoop=1;jettySize=auto;html=1;" parent="HrrryDI2J3kP2jH0_c2q-15" source="HrrryDI2J3kP2jH0_c2q-7" target="HrrryDI2J3kP2jH0_c2q-10" edge="1">
          <mxGeometry relative="1" as="geometry">
            <Array as="points">
              <mxPoint x="75" y="170" />
              <mxPoint x="75" y="170" />
            </Array>
          </mxGeometry>
        </mxCell>
        <mxCell id="HrrryDI2J3kP2jH0_c2q-7" value="&amp;nbsp;&lt;font style=&quot;font-size: 15px;&quot;&gt;&lt;b&gt;Face Preprocessing&lt;/b&gt;&lt;/font&gt;" style="ellipse;whiteSpace=wrap;html=1;" parent="HrrryDI2J3kP2jH0_c2q-15" vertex="1">
          <mxGeometry x="10" y="120" width="190" height="30" as="geometry" />
        </mxCell>
        <mxCell id="HrrryDI2J3kP2jH0_c2q-13" value="" style="edgeStyle=orthogonalEdgeStyle;rounded=0;orthogonalLoop=1;jettySize=auto;html=1;" parent="HrrryDI2J3kP2jH0_c2q-15" source="HrrryDI2J3kP2jH0_c2q-10" target="HrrryDI2J3kP2jH0_c2q-12" edge="1">
          <mxGeometry relative="1" as="geometry" />
        </mxCell>
        <mxCell id="HrrryDI2J3kP2jH0_c2q-10" value="&amp;nbsp;&lt;font style=&quot;font-size: 15px;&quot;&gt;&lt;b&gt;Face Extraction&lt;/b&gt;&lt;/font&gt;" style="ellipse;whiteSpace=wrap;html=1;" parent="HrrryDI2J3kP2jH0_c2q-15" vertex="1">
          <mxGeometry x="10" y="230" width="130" height="30" as="geometry" />
        </mxCell>
        <mxCell id="HrrryDI2J3kP2jH0_c2q-12" value="&amp;nbsp;&lt;font style=&quot;font-size: 15px;&quot;&gt;&lt;b&gt;show the features&lt;br/&gt; that are not found&lt;/b&gt;&lt;/font&gt;" style="whiteSpace=wrap;html=1;" parent="HrrryDI2J3kP2jH0_c2q-15" vertex="1">
          <mxGeometry x="225" y="200" width="120" height="75" as="geometry" />
        </mxCell>
        <mxCell id="HrrryDI2J3kP2jH0_c2q-14" style="edgeStyle=orthogonalEdgeStyle;rounded=0;orthogonalLoop=1;jettySize=auto;html=1;entryX=0.3;entryY=1.011;entryDx=0;entryDy=0;entryPerimeter=0;" parent="HrrryDI2J3kP2jH0_c2q-15" source="HrrryDI2J3kP2jH0_c2q-12" target="HrrryDI2J3kP2jH0_c2q-4" edge="1">
          <mxGeometry relative="1" as="geometry">
            <mxPoint x="285" y="40" as="targetPoint" />
          </mxGeometry>
        </mxCell>
        <mxCell id="HrrryDI2J3kP2jH0_c2q-16" value="&lt;font style=&quot;font-size: 20px;&quot;&gt;&lt;b style=&quot;&quot;&gt;Database&lt;/b&gt;&lt;/font&gt;" style="rounded=1;whiteSpace=wrap;html=1;" parent="1" vertex="1">
          <mxGeometry x="120" y="190" width="100" height="30" as="geometry" />
        </mxCell>
        <mxCell id="HrrryDI2J3kP2jH0_c2q-17" value="" style="shape=cylinder3;whiteSpace=wrap;html=1;boundedLbl=1;backgroundOutline=1;size=15;" parent="1" vertex="1">
          <mxGeometry x="100" y="240" width="160" height="170" as="geometry" />
        </mxCell>
        <mxCell id="HrrryDI2J3kP2jH0_c2q-24" value="" style="group" parent="1" vertex="1" connectable="0">
          <mxGeometry x="110" y="270" width="140" height="130" as="geometry" />
        </mxCell>
        <mxCell id="HrrryDI2J3kP2jH0_c2q-18" value="" style="shape=actor;whiteSpace=wrap;html=1;" parent="HrrryDI2J3kP2jH0_c2q-24" vertex="1">
          <mxGeometry x="93.33333333333334" y="70" width="46.66666666666667" height="60" as="geometry" />
        </mxCell>
        <mxCell id="HrrryDI2J3kP2jH0_c2q-19" value="" style="shape=actor;whiteSpace=wrap;html=1;" parent="HrrryDI2J3kP2jH0_c2q-24" vertex="1">
          <mxGeometry x="46.66666666666667" y="70" width="46.66666666666667" height="60" as="geometry" />
        </mxCell>
        <mxCell id="HrrryDI2J3kP2jH0_c2q-20" value="" style="shape=actor;whiteSpace=wrap;html=1;" parent="HrrryDI2J3kP2jH0_c2q-24" vertex="1">
          <mxGeometry y="70" width="46.66666666666667" height="60" as="geometry" />
        </mxCell>
        <mxCell id="HrrryDI2J3kP2jH0_c2q-21" value="" style="shape=actor;whiteSpace=wrap;html=1;" parent="HrrryDI2J3kP2jH0_c2q-24" vertex="1">
          <mxGeometry x="93.33333333333334" width="46.66666666666667" height="60" as="geometry" />
        </mxCell>
        <mxCell id="HrrryDI2J3kP2jH0_c2q-22" value="" style="shape=actor;whiteSpace=wrap;html=1;" parent="HrrryDI2J3kP2jH0_c2q-24" vertex="1">
          <mxGeometry x="46.66666666666667" width="46.66666666666667" height="60" as="geometry" />
        </mxCell>
        <mxCell id="HrrryDI2J3kP2jH0_c2q-23" value="" style="shape=actor;whiteSpace=wrap;html=1;" parent="HrrryDI2J3kP2jH0_c2q-24" vertex="1">
          <mxGeometry width="46.66666666666667" height="60" as="geometry" />
        </mxCell>
        <mxCell id="pHYx89w9xWdkgX9-I-9k-1" value="&lt;font style=&quot;font-size: 20px;&quot;&gt;&lt;b&gt;Machine Learning&lt;/b&gt;&lt;/font&gt;" style="rounded=1;whiteSpace=wrap;html=1;" vertex="1" parent="1">
          <mxGeometry x="290" y="490" width="180" height="40" as="geometry" />
        </mxCell>
        <mxCell id="pHYx89w9xWdkgX9-I-9k-11" value="" style="group" vertex="1" connectable="0" parent="1">
          <mxGeometry x="70" y="540" width="620" height="210" as="geometry" />
        </mxCell>
        <mxCell id="pHYx89w9xWdkgX9-I-9k-3" value="&lt;blockquote style=&quot;margin: 0 0 0 40px; border: none; padding: 0px;&quot;&gt;&lt;br&gt;&lt;/blockquote&gt;" style="rounded=0;whiteSpace=wrap;html=1;align=center;" vertex="1" parent="pHYx89w9xWdkgX9-I-9k-11">
          <mxGeometry width="620" height="210" as="geometry" />
        </mxCell>
        <mxCell id="pHYx89w9xWdkgX9-I-9k-13" style="edgeStyle=orthogonalEdgeStyle;rounded=0;orthogonalLoop=1;jettySize=auto;html=1;entryX=0;entryY=0.5;entryDx=0;entryDy=0;" edge="1" parent="pHYx89w9xWdkgX9-I-9k-11" source="pHYx89w9xWdkgX9-I-9k-5" target="pHYx89w9xWdkgX9-I-9k-10">
          <mxGeometry relative="1" as="geometry" />
        </mxCell>
        <mxCell id="pHYx89w9xWdkgX9-I-9k-5" value="&lt;span style=&quot;font-size: 14px;&quot;&gt;NN+ML+DL&lt;/span&gt;" style="label;whiteSpace=wrap;html=1;align=center;verticalAlign=bottom;spacingLeft=0;spacingBottom=4;imageAlign=center;imageVerticalAlign=top;image=img/clipart/Gear_128x128.png" vertex="1" parent="pHYx89w9xWdkgX9-I-9k-11">
          <mxGeometry x="28.18" y="10" width="101.82" height="80" as="geometry" />
        </mxCell>
        <mxCell id="pHYx89w9xWdkgX9-I-9k-8" value="&lt;font style=&quot;font-size: 18px;&quot;&gt;% Score&lt;/font&gt;" style="whiteSpace=wrap;html=1;verticalAlign=bottom;fontStyle=1;spacing=2;spacingLeft=0;rounded=1;spacingBottom=4;" vertex="1" parent="pHYx89w9xWdkgX9-I-9k-11">
          <mxGeometry x="500" y="35" width="105.91" height="35" as="geometry" />
        </mxCell>
        <mxCell id="pHYx89w9xWdkgX9-I-9k-12" style="edgeStyle=orthogonalEdgeStyle;rounded=0;orthogonalLoop=1;jettySize=auto;html=1;" edge="1" parent="pHYx89w9xWdkgX9-I-9k-11" source="pHYx89w9xWdkgX9-I-9k-10">
          <mxGeometry relative="1" as="geometry">
            <mxPoint x="500" y="50" as="targetPoint" />
            <Array as="points">
              <mxPoint x="500" y="50" />
            </Array>
          </mxGeometry>
        </mxCell>
        <mxCell id="pHYx89w9xWdkgX9-I-9k-10" value="&lt;font style=&quot;font-size: 16px;&quot;&gt;&lt;b&gt;Processing&lt;/b&gt;&lt;/font&gt;" style="rounded=1;whiteSpace=wrap;html=1;strokeWidth=2;fillWeight=4;hachureGap=8;hachureAngle=45;fillColor=#1ba1e2;sketch=1;gradientColor=none;fillStyle=dashed;" vertex="1" parent="pHYx89w9xWdkgX9-I-9k-11">
          <mxGeometry x="239.55" y="35" width="130.45" height="30" as="geometry" />
        </mxCell>
        <mxCell id="pHYx89w9xWdkgX9-I-9k-21" value="" style="group" vertex="1" connectable="0" parent="pHYx89w9xWdkgX9-I-9k-11">
          <mxGeometry x="340" y="110" width="270" height="60" as="geometry" />
        </mxCell>
        <mxCell id="pHYx89w9xWdkgX9-I-9k-15" value="&lt;span style=&quot;white-space: pre;&quot;&gt;&#x9;&lt;/span&gt;&lt;span style=&quot;white-space: pre;&quot;&gt;&#x9;&lt;/span&gt;&lt;font style=&quot;font-size: 23px;&quot;&gt;+&lt;/font&gt;" style="rounded=0;whiteSpace=wrap;html=1;align=left;" vertex="1" parent="pHYx89w9xWdkgX9-I-9k-21">
          <mxGeometry width="270" height="60" as="geometry" />
        </mxCell>
        <mxCell id="pHYx89w9xWdkgX9-I-9k-16" value="" style="shape=actor;whiteSpace=wrap;html=1;" vertex="1" parent="pHYx89w9xWdkgX9-I-9k-21">
          <mxGeometry x="10" y="5" width="30" height="50" as="geometry" />
        </mxCell>
        <mxCell id="pHYx89w9xWdkgX9-I-9k-19" style="edgeStyle=orthogonalEdgeStyle;rounded=0;orthogonalLoop=1;jettySize=auto;html=1;entryX=0;entryY=0.5;entryDx=0;entryDy=0;" edge="1" parent="pHYx89w9xWdkgX9-I-9k-21" source="pHYx89w9xWdkgX9-I-9k-17" target="pHYx89w9xWdkgX9-I-9k-18">
          <mxGeometry relative="1" as="geometry" />
        </mxCell>
        <mxCell id="pHYx89w9xWdkgX9-I-9k-17" value="" style="shape=cylinder3;whiteSpace=wrap;html=1;boundedLbl=1;backgroundOutline=1;size=15;" vertex="1" parent="pHYx89w9xWdkgX9-I-9k-21">
          <mxGeometry x="80" y="5" width="40" height="50" as="geometry" />
        </mxCell>
        <mxCell id="pHYx89w9xWdkgX9-I-9k-18" value="&lt;font style=&quot;font-size: 16px;&quot;&gt;&lt;b&gt;% Score&lt;/b&gt;&lt;/font&gt;" style="rounded=1;whiteSpace=wrap;html=1;" vertex="1" parent="pHYx89w9xWdkgX9-I-9k-21">
          <mxGeometry x="190" y="20" width="70" height="20" as="geometry" />
        </mxCell>
        <mxCell id="pHYx89w9xWdkgX9-I-9k-23" style="edgeStyle=orthogonalEdgeStyle;rounded=0;orthogonalLoop=1;jettySize=auto;html=1;entryX=0.789;entryY=0.167;entryDx=0;entryDy=0;entryPerimeter=0;" edge="1" parent="pHYx89w9xWdkgX9-I-9k-11" source="pHYx89w9xWdkgX9-I-9k-8" target="pHYx89w9xWdkgX9-I-9k-15">
          <mxGeometry relative="1" as="geometry" />
        </mxCell>
        <mxCell id="pHYx89w9xWdkgX9-I-9k-24" value="&lt;font style=&quot;font-size: 20px;&quot;&gt;&lt;b&gt;Suspicious Activity&lt;/b&gt;&lt;/font&gt;" style="rounded=1;whiteSpace=wrap;html=1;" vertex="1" parent="1">
          <mxGeometry x="90" y="840" width="200" height="40" as="geometry" />
        </mxCell>
        <mxCell id="pHYx89w9xWdkgX9-I-9k-52" value="&lt;ul&gt;&lt;li&gt;&lt;font style=&quot;font-size: 15px;&quot;&gt;&lt;b&gt;Glass Breaking&lt;/b&gt;&lt;/font&gt;&lt;/li&gt;&lt;li&gt;&lt;font style=&quot;font-size: 15px;&quot;&gt;&lt;b&gt;Fire Accident&lt;/b&gt;&lt;/font&gt;&lt;/li&gt;&lt;/ul&gt;" style="rounded=0;whiteSpace=wrap;html=1;align=left;" vertex="1" parent="1">
          <mxGeometry x="100" y="890" width="160" height="60" as="geometry" />
        </mxCell>
        <mxCell id="pHYx89w9xWdkgX9-I-9k-53" value="&lt;b&gt;&lt;font style=&quot;font-size: 16px;&quot;&gt;Dashboard And Alert System&lt;/font&gt;&lt;/b&gt;" style="shape=offPageConnector;whiteSpace=wrap;html=1;" vertex="1" parent="1">
          <mxGeometry x="610" y="850" width="130" height="170" as="geometry" />
        </mxCell>
      </root>
    </mxGraphModel>
  </diagram>
</mxfile>
